<?xml version="1.0" standalone="no"?>
<!DOCTYPE svg PUBLIC "-//W3C//DTD SVG 20010904//EN"
 "http://www.w3.org/TR/2001/REC-SVG-20010904/DTD/svg10.dtd">
<svg version="1.0" xmlns="http://www.w3.org/2000/svg"
 width="1329.000000pt" height="317.000000pt" viewBox="0 0 1329.000000 317.000000"
 preserveAspectRatio="xMidYMid meet">

<g transform="translate(0.000000,317.000000) scale(0.100000,-0.100000)"
fill="#000000" stroke="none">
<path d="M3045 2685 c-93 -19 -173 -34 -177 -34 -5 -1 -8 -586 -8 -1301 l0
-1300 183 2 182 3 5 715 5 715 65 19 c44 12 100 19 175 20 101 1 114 -1 167
-27 64 -32 102 -76 128 -151 38 -108 42 -170 47 -738 l5 -558 179 0 179 0 0
564 c0 450 -3 589 -15 682 -42 314 -175 497 -411 562 -145 40 -321 37 -465 -8
l-59 -18 0 444 c0 244 -3 444 -7 443 -5 -1 -84 -16 -178 -34z"/>
<path d="M9415 2690 c-77 -15 -157 -30 -177 -34 l-38 -7 0 -1300 0 -1299 183
2 182 3 5 409 5 408 95 -98 c157 -162 319 -383 443 -607 l63 -112 207 -3 c154
-2 207 1 207 9 0 20 -104 210 -186 342 -147 235 -295 434 -429 576 l-67 70 19
24 c10 12 75 90 144 172 153 183 479 590 479 599 0 3 -96 6 -212 6 l-213 0
-29 -41 c-48 -68 -253 -326 -390 -492 l-131 -158 -3 773 c-1 425 -5 775 -10
778 -4 4 -70 -5 -147 -20z"/>
<path d="M661 2479 c-166 -21 -293 -81 -401 -189 -133 -132 -182 -262 -183
-485 -1 -207 48 -339 173 -466 78 -79 165 -132 336 -204 383 -162 484 -248
500 -426 9 -94 -14 -167 -73 -230 -67 -71 -125 -91 -288 -97 -202 -7 -306 15
-492 103 l-92 43 -50 -156 c-27 -86 -52 -166 -55 -177 -5 -17 4 -26 52 -52
241 -131 624 -176 912 -107 240 58 418 234 465 459 19 93 19 293 0 387 -30
142 -102 262 -214 355 -64 53 -106 75 -496 263 -107 52 -141 74 -191 124 -47
48 -64 73 -78 120 -36 114 -2 239 83 303 67 52 134 66 275 60 139 -6 260 -36
365 -92 36 -19 65 -34 66 -32 1 1 28 78 58 171 38 114 53 173 47 181 -5 6 -45
28 -87 48 -191 89 -421 124 -632 96z"/>
<path d="M12410 2356 l-165 -32 0 -885 c0 -872 1 -885 22 -983 41 -185 122
-311 241 -374 158 -84 386 -92 598 -22 134 45 127 32 99 185 -13 72 -27 145
-30 163 -5 26 -9 31 -23 23 -51 -27 -157 -53 -238 -58 -152 -10 -229 31 -277
148 -21 53 -22 66 -25 516 l-3 463 278 2 278 3 3 173 2 172 -280 0 -280 0 0
270 c0 251 -1 270 -17 269 -10 -1 -92 -16 -183 -33z"/>
<path d="M2175 1884 c-112 -24 -189 -56 -272 -112 -264 -181 -403 -544 -365
-952 33 -349 157 -580 383 -713 151 -89 375 -120 595 -82 85 15 244 61 244 71
0 14 -51 338 -53 341 -2 1 -26 -6 -53 -17 -72 -27 -205 -50 -288 -50 -234 1
-369 106 -433 340 -26 93 -26 387 0 480 41 150 120 255 230 306 58 27 70 29
192 29 120 0 137 -3 218 -31 48 -18 87 -29 87 -25 0 3 16 73 35 155 19 82 35
157 35 166 0 22 -105 63 -220 84 -75 15 -283 20 -335 10z"/>
<path d="M7034 1870 c-294 -77 -496 -327 -559 -694 -19 -114 -19 -324 0 -446
73 -447 353 -720 740 -720 472 0 778 409 752 1004 -20 453 -232 769 -575 857
-100 25 -260 25 -358 -1z m321 -369 c103 -48 174 -149 217 -309 16 -61 20
-109 21 -232 0 -180 -15 -267 -67 -376 -44 -92 -93 -146 -168 -184 -52 -26
-72 -30 -138 -30 -101 0 -158 21 -224 81 -62 56 -116 156 -143 264 -26 107
-24 382 5 488 29 107 75 189 139 247 66 60 116 78 218 79 68 1 89 -3 140 -28z"/>
<path d="M8616 1879 c-104 -10 -221 -37 -352 -80 l-94 -32 0 -858 0 -859 180
0 180 0 2 723 3 722 50 14 c31 9 102 14 185 15 112 0 149 -3 214 -22 43 -13
80 -21 81 -20 1 2 14 73 29 158 15 85 30 162 32 171 4 13 -12 21 -83 38 -162
40 -256 46 -427 30z"/>
<path d="M4220 1839 c0 -27 169 -678 246 -946 75 -263 219 -711 258 -805 l16
-38 150 0 149 0 10 33 c118 406 193 674 237 852 30 121 56 224 57 230 2 5 23
-69 46 -165 39 -162 170 -626 239 -850 l30 -95 149 -3 149 -2 51 138 c112 303
261 808 397 1350 42 165 76 303 76 306 0 3 -84 6 -188 6 l-187 0 -28 -137
c-72 -348 -252 -1087 -275 -1130 -16 -27 -165 574 -262 1055 l-43 213 -141 -3
-140 -3 -9 -45 c-53 -279 -255 -1116 -294 -1220 -3 -9 -13 10 -24 45 -52 168
-208 827 -266 1125 l-19 95 -192 3 c-138 2 -192 -1 -192 -9z"/>
<path d="M10660 1333 c0 -285 5 -571 11 -636 32 -372 174 -583 442 -658 70
-20 105 -23 242 -23 198 1 381 27 588 84 l37 11 0 869 0 870 -185 0 -185 0 0
-729 0 -729 -67 -8 c-116 -14 -273 -10 -315 9 -92 39 -142 106 -175 228 -14
56 -17 137 -20 647 l-4 582 -185 0 -184 0 0 -517z"/>
</g>
</svg>
